<?xml version="1.0" standalone="no"?>
<!DOCTYPE svg PUBLIC "-//W3C//DTD SVG 20010904//EN"
 "http://www.w3.org/TR/2001/REC-SVG-20010904/DTD/svg10.dtd">
<svg version="1.0" xmlns="http://www.w3.org/2000/svg"
 width="294.000000pt" height="256.000000pt" viewBox="0 0 294.000000 256.000000"
 preserveAspectRatio="xMidYMid meet">

<g transform="translate(0.000000,256.000000) scale(0.100000,-0.100000)"
fill="#000000" stroke="none">
<path d="M2190 1805 c0 -16 6 -25 15 -25 9 0 15 9 15 25 0 16 -6 25 -15 25 -9
0 -15 -9 -15 -25z"/>
<path d="M2240 1790 c0 -20 5 -30 15 -30 10 0 15 10 15 30 0 20 -5 30 -15 30
-10 0 -15 -10 -15 -30z"/>
<path d="M2170 1726 c0 -8 4 -26 10 -40 8 -21 16 -26 42 -26 38 1 68 20 68 44
0 20 -19 21 -48 0 -21 -14 -23 -14 -32 10 -10 28 -40 36 -40 12z"/>
<path d="M2080 1673 c0 -10 -3 -28 -6 -40 -5 -19 -2 -23 15 -23 16 0 21 -6 21
-25 0 -16 6 -25 15 -25 8 0 15 -4 15 -10 0 -5 7 -10 15 -10 11 0 15 11 15 40
0 29 -4 40 -15 40 -8 0 -15 9 -15 20 0 11 -7 20 -15 20 -8 0 -15 7 -15 15 0 8
-7 15 -15 15 -8 0 -15 -8 -15 -17z"/>
<path d="M2260 1590 c0 -34 3 -40 21 -40 17 0 20 4 15 23 -3 12 -6 30 -6 40 0
9 -7 17 -15 17 -11 0 -15 -11 -15 -40z"/>
<path d="M2310 1590 c0 -37 -3 -41 -42 -59 l-43 -20 -3 45 c-2 32 -7 44 -19
44 -12 0 -14 -10 -11 -50 l3 -49 -40 5 c-91 12 -106 16 -112 30 -3 7 -11 14
-19 14 -11 0 -13 -14 -8 -71 5 -44 2 -96 -6 -140 -11 -58 -19 -74 -44 -95 -61
-48 -66 -56 -66 -104 0 -60 23 -83 77 -78 l38 3 -3 -46 c-2 -29 1 -49 10 -56
20 -15 130 -43 172 -43 53 0 127 20 155 42 13 10 30 18 37 18 10 0 14 17 14
65 0 64 0 65 28 65 15 0 32 4 39 8 6 4 13 50 17 112 3 58 8 146 12 196 5 77 3
93 -11 107 -9 10 -25 17 -36 17 -20 0 -59 33 -59 50 0 6 -7 10 -15 10 -8 0
-15 -9 -15 -19 0 -11 -4 -23 -10 -26 -6 -4 -10 8 -10 29 0 25 -4 36 -15 36
-11 0 -15 -11 -15 -40z m144 -86 c9 -8 16 -22 16 -30 0 -20 -36 -17 -44 4 -3
9 -9 23 -12 30 -8 17 22 15 40 -4z m-89 -17 c-11 -7 -30 -15 -43 -19 -38 -11
-20 15 19 28 39 14 53 8 24 -9z m-115 -27 c0 -5 -9 -10 -20 -10 -11 0 -20 5
-20 10 0 6 9 10 20 10 11 0 20 -4 20 -10z m-120 -10 c0 -5 -4 -10 -9 -10 -6 0
-13 5 -16 10 -3 6 1 10 9 10 9 0 16 -4 16 -10z m316 -45 c3 -14 3 -47 -2 -73
-4 -28 -9 -39 -12 -27 -2 11 -8 24 -13 30 -5 5 -9 28 -9 52 0 49 25 61 36 18z
m-359 -21 c-3 -3 -12 -4 -19 -1 -8 3 -5 6 6 6 11 1 17 -2 13 -5z m110 -38
c-12 -18 -23 -27 -25 -20 -5 19 17 54 33 54 11 0 9 -8 -8 -34z m-85 -13 c6
-28 -3 -53 -18 -53 -8 0 -14 -8 -14 -18 0 -11 -16 -27 -40 -41 -37 -21 -40
-25 -40 -67 0 -37 -4 -46 -22 -53 -46 -17 -66 37 -28 75 71 69 78 79 84 117 9
53 12 57 46 57 19 0 30 -6 32 -17z m158 -13 c0 -15 -61 -80 -76 -80 -4 0 27
59 53 103 7 12 23 -3 23 -23z m107 -175 l-23 -24 4 32 c2 18 10 46 18 64 8 17
15 37 16 45 1 7 3 -11 5 -40 4 -46 1 -57 -20 -77z m73 55 c0 -33 -4 -60 -10
-60 -6 0 -10 27 -10 60 0 33 4 60 10 60 6 0 10 -27 10 -60z m-185 -29 c-8 -17
-20 -31 -24 -31 -5 0 0 18 12 40 25 45 36 37 12 -9z m-185 -56 c0 -41 -3 -42
-30 -13 -27 29 -25 48 5 48 22 0 25 -4 25 -35z m96 -13 c-15 -15 -15 -15 -4
10 7 15 15 23 17 17 2 -6 -4 -18 -13 -27z m194 -49 c0 -37 -14 -52 -72 -81
-16 -8 26 85 45 100 12 10 23 18 25 18 1 0 2 -17 2 -37z m-170 -3 c0 -5 -2
-10 -4 -10 -3 0 -8 5 -11 10 -3 6 -1 10 4 10 6 0 11 -4 11 -10z m-120 -35 c0
-24 -5 -35 -14 -35 -21 0 -28 15 -20 45 10 39 34 32 34 -10z m107 -61 c-2 -2
-12 -1 -22 3 -18 6 -18 7 1 13 17 7 33 -5 21 -16z"/>
<path d="M1370 1320 c0 -56 3 -70 15 -70 12 0 15 14 15 70 0 56 -3 70 -15 70
-12 0 -15 -14 -15 -70z"/>
<path d="M1483 1334 c-29 -33 -29 -44 2 -44 24 0 45 25 45 54 0 24 -22 19 -47
-10z"/>
<path d="M1645 1294 c-11 -9 -27 -21 -36 -27 -9 -7 -19 -22 -23 -34 -6 -19 -4
-23 12 -23 11 0 22 4 24 8 2 4 20 21 41 36 20 16 37 35 37 42 0 18 -30 17 -55
-2z"/>
<path d="M1550 1160 c0 -5 5 -10 10 -10 6 0 10 5 10 10 0 6 -4 10 -10 10 -5 0
-10 -4 -10 -10z"/>
<path d="M1370 1140 c0 -5 5 -10 10 -10 6 0 10 5 10 10 0 6 -4 10 -10 10 -5 0
-10 -4 -10 -10z"/>
<path d="M1420 1105 c0 -8 4 -15 9 -15 5 0 11 -9 14 -20 6 -24 52 -28 61 -4
10 26 7 34 -14 34 -11 0 -20 5 -20 10 0 6 -11 10 -25 10 -16 0 -25 -6 -25 -15z"/>
</g>
</svg>
